<svg width="139" height="31" viewBox="0 0 139 31" fill="none" xmlns="http://www.w3.org/2000/svg">
<g clip-path="url(#clip0_9_24)">
<path d="M13.8047 6.70898H4.34766V13.2305H13.4707V17.0801H4.34766V30H0.251953V2.85938H13.8047V6.70898ZM17.4609 12.8789H21.416V14.4082C22.1426 13.6465 22.7871 13.125 23.3496 12.8438C23.9238 12.5508 24.6035 12.4043 25.3887 12.4043C26.4316 12.4043 27.5215 12.7441 28.6582 13.4238L26.8477 17.0449C26.0977 16.5059 25.3652 16.2363 24.6504 16.2363C22.4941 16.2363 21.416 17.8652 21.416 21.123V30H17.4609V12.8789ZM29.8008 21.3164C29.8008 18.8438 30.6855 16.7402 32.4551 15.0059C34.2246 13.2715 36.3809 12.4043 38.9238 12.4043C41.4785 12.4043 43.6465 13.2773 45.4277 15.0234C47.1855 16.7695 48.0645 18.9141 48.0645 21.457C48.0645 24.0234 47.1797 26.1738 45.4102 27.9082C43.6289 29.6309 41.4434 30.4922 38.8535 30.4922C36.2871 30.4922 34.1367 29.6133 32.4023 27.8555C30.668 26.1211 29.8008 23.9414 29.8008 21.3164ZM33.8438 21.3867C33.8438 23.0977 34.3008 24.4512 35.2148 25.4473C36.1523 26.4551 37.3887 26.959 38.9238 26.959C40.4707 26.959 41.707 26.4609 42.6328 25.4648C43.5586 24.4688 44.0215 23.1387 44.0215 21.4746C44.0215 19.8105 43.5586 18.4805 42.6328 17.4844C41.6953 16.4766 40.459 15.9727 38.9238 15.9727C37.4121 15.9727 36.1875 16.4766 35.25 17.4844C34.3125 18.4922 33.8438 19.793 33.8438 21.3867ZM52.2656 12.8789H56.2383V14.4609C57.6211 13.0898 59.1797 12.4043 60.9141 12.4043C62.9062 12.4043 64.459 13.0312 65.5723 14.2852C66.5332 15.3516 67.0137 17.0918 67.0137 19.5059V30H63.041V20.4375C63.041 18.75 62.8066 17.584 62.3379 16.9395C61.8809 16.2832 61.0488 15.9551 59.8418 15.9551C58.5293 15.9551 57.5977 16.3887 57.0469 17.2559C56.5078 18.1113 56.2383 19.6055 56.2383 21.7383V30H52.2656V12.8789ZM76.1016 16.5703V30H72.1465V16.5703H70.459V12.8789H72.1465V6.60352H76.1016V12.8789H79.1777V16.5703H76.1016ZM97.7754 22.3711H85.5059C85.6113 23.7773 86.0684 24.8965 86.877 25.7285C87.6855 26.5488 88.7227 26.959 89.9883 26.959C90.9727 26.959 91.7871 26.7246 92.4316 26.2559C93.0645 25.7871 93.7852 24.9199 94.5938 23.6543L97.9336 25.5176C97.418 26.3965 96.873 27.1523 96.2988 27.7852C95.7246 28.4062 95.1094 28.9219 94.4531 29.332C93.7969 29.7305 93.0879 30.0234 92.3262 30.2109C91.5645 30.3984 90.7383 30.4922 89.8477 30.4922C87.293 30.4922 85.2422 29.6719 83.6953 28.0312C82.1484 26.3789 81.375 24.1875 81.375 21.457C81.375 18.75 82.125 16.5586 83.625 14.8828C85.1367 13.2305 87.1406 12.4043 89.6367 12.4043C92.1562 12.4043 94.1484 13.207 95.6133 14.8125C97.0664 16.4062 97.793 18.6152 97.793 21.4395L97.7754 22.3711ZM93.7148 19.1367C93.1641 17.0273 91.834 15.9727 89.7246 15.9727C89.2441 15.9727 88.793 16.0488 88.3711 16.2012C87.9492 16.3418 87.5625 16.5527 87.2109 16.834C86.8711 17.1035 86.5781 17.4316 86.332 17.8184C86.0859 18.2051 85.8984 18.6445 85.7695 19.1367H93.7148ZM102.117 12.8789H106.09V14.4609C107.473 13.0898 109.031 12.4043 110.766 12.4043C112.758 12.4043 114.311 13.0312 115.424 14.2852C116.385 15.3516 116.865 17.0918 116.865 19.5059V30H112.893V20.4375C112.893 18.75 112.658 17.584 112.189 16.9395C111.732 16.2832 110.9 15.9551 109.693 15.9551C108.381 15.9551 107.449 16.3887 106.898 17.2559C106.359 18.1113 106.09 19.6055 106.09 21.7383V30H102.117V12.8789ZM134.496 0.310547H138.469V30H134.496V28.207C132.938 29.7305 131.174 30.4922 129.205 30.4922C126.861 30.4922 124.916 29.6367 123.369 27.9258C121.834 26.1797 121.066 24 121.066 21.3867C121.066 18.832 121.834 16.6992 123.369 14.9883C124.893 13.2656 126.809 12.4043 129.117 12.4043C131.121 12.4043 132.914 13.2246 134.496 14.8652V0.310547ZM125.109 21.3867C125.109 23.0273 125.549 24.3633 126.428 25.3945C127.33 26.4375 128.467 26.959 129.838 26.959C131.303 26.959 132.486 26.4551 133.389 25.4473C134.291 24.4043 134.742 23.0801 134.742 21.4746C134.742 19.8691 134.291 18.5449 133.389 17.502C132.486 16.4824 131.314 15.9727 129.873 15.9727C128.514 15.9727 127.377 16.4883 126.463 17.5195C125.561 18.5625 125.109 19.8516 125.109 21.3867Z" fill="white"/>
</g>
<defs>
<clipPath id="clip0_9_24">
<rect width="139" height="31" fill="white"/>
</clipPath>
</defs>
</svg>
